<?xml version="1.0" encoding="UTF-8"?><svg id="Camada_2" xmlns="http://www.w3.org/2000/svg" viewBox="0 0 414.06 111.74"><defs><style>.cls-1{fill:#ff7f00;}.cls-2{fill:#c6c6c6;}.cls-3{fill:#ededed;}</style></defs><g id="Camada_1-2"><g><g><rect class="cls-3" x="316.97" y="37.95" width="3.13" height="37.07" rx="1.57" ry="1.57" transform="translate(-.17 111.99) rotate(-19.93)"/><path class="cls-3" d="M324.33,74.63c-.89,0-1.74-.55-2.06-1.44l-11.57-31.9c-.41-1.13,.18-2.39,1.31-2.8,1.13-.41,2.39,.18,2.8,1.31l11.57,31.9c.41,1.13-.18,2.39-1.31,2.8h0c-.25,.09-.5,.13-.74,.13Zm-11.57-35.04c-.11,0-.22,.02-.32,.06-.49,.18-.75,.72-.57,1.21l11.57,31.9c.18,.49,.73,.75,1.21,.57,.49-.18,.75-.72,.57-1.21l-11.57-31.9c-.14-.38-.5-.62-.89-.62Z"/></g><g><g><g><g><path d="M97.18,27.16c1.19,.99,1.79,2.16,1.79,3.5,0,1.81-.47,3.16-1.4,4.07-.93,.91-2.04,1.36-3.32,1.36-.87,0-1.87-.2-2.97-.61-.17-.06-.57-.18-1.18-.35s-1.27-.26-1.97-.26c-1.52,0-2.97,.47-4.37,1.4-1.4,.93-2.55,2.35-3.46,4.24-.9,1.9-1.36,4.15-1.36,6.78v20.73c0,1.52-.5,2.79-1.49,3.81-.99,1.02-2.25,1.53-3.76,1.53s-2.77-.51-3.76-1.53c-.99-1.02-1.49-2.29-1.49-3.81V31.88c0-1.52,.49-2.78,1.49-3.8,.99-1.02,2.24-1.53,3.76-1.53s2.77,.51,3.76,1.53c.99,1.02,1.49,2.29,1.49,3.8v1.14c1.34-2.39,3.26-4.21,5.77-5.47,2.51-1.25,5.19-1.88,8.05-1.88,1.75,0,3.22,.5,4.42,1.49Z"/><path d="M73.69,74.05c-1.71,0-3.15-.59-4.27-1.75-1.12-1.15-1.69-2.6-1.69-4.3V31.88c0-1.7,.57-3.15,1.69-4.3,1.13-1.16,2.56-1.75,4.27-1.75s3.14,.59,4.27,1.74c.88,.9,1.41,1.98,1.61,3.22,1.28-1.62,2.9-2.92,4.83-3.89,2.6-1.3,5.41-1.96,8.36-1.96,1.91,0,3.55,.56,4.87,1.65h0c1.36,1.13,2.05,2.49,2.05,4.04,0,2-.54,3.54-1.61,4.58-1.76,1.71-4.04,2-7.04,.9-.15-.05-.53-.16-1.13-.33-.55-.16-1.14-.23-1.77-.23-1.37,0-2.71,.43-3.98,1.28-1.29,.86-2.37,2.19-3.21,3.96-.85,1.79-1.29,3.97-1.29,6.47v20.73c0,1.7-.57,3.15-1.69,4.3-1.13,1.16-2.56,1.74-4.27,1.74Zm0-46.79c-1.33,0-2.39,.43-3.25,1.32-.87,.89-1.29,1.97-1.29,3.31v36.12c0,1.34,.42,2.42,1.29,3.31,.86,.89,1.92,1.32,3.25,1.32s2.39-.43,3.25-1.32c.87-.89,1.29-1.97,1.29-3.31v-20.73c0-2.72,.48-5.1,1.42-7.08,.95-2,2.2-3.52,3.7-4.53,1.51-1.01,3.12-1.52,4.77-1.52,.76,0,1.49,.1,2.16,.29,.63,.18,1.03,.3,1.21,.36,2.51,.92,4.21,.75,5.58-.58,.79-.76,1.18-1.96,1.18-3.56,0-1.13-.5-2.09-1.54-2.95h0c-1.08-.89-2.37-1.32-3.96-1.32-2.73,0-5.33,.61-7.73,1.81-2.37,1.19-4.21,2.93-5.47,5.18l-1.33,2.37v-3.85c0-1.34-.42-2.42-1.29-3.31-.86-.88-1.92-1.32-3.25-1.32Z"/></g><g><path d="M141.74,27.16c.99,.99,1.49,2.27,1.49,3.85v37c0,1.52-.5,2.79-1.49,3.81-.99,1.02-2.25,1.53-3.76,1.53s-2.75-.5-3.72-1.49c-.96-.99-1.47-2.24-1.53-3.76-1.46,1.69-3.43,3.13-5.9,4.33-2.48,1.19-5.09,1.79-7.83,1.79-4.02,0-7.67-1.04-10.93-3.11-3.27-2.07-5.85-4.94-7.74-8.62-1.9-3.67-2.84-7.84-2.84-12.51s.93-8.85,2.8-12.55c1.87-3.7,4.42-6.59,7.65-8.66,3.24-2.07,6.81-3.11,10.71-3.11,2.8,0,5.42,.51,7.87,1.53,2.45,1.02,4.52,2.32,6.21,3.89v-.09c0-1.52,.5-2.78,1.49-3.8,.99-1.02,2.24-1.53,3.76-1.53s2.77,.5,3.76,1.49Zm-12.16,33.28c2.39-2.77,3.59-6.25,3.59-10.45s-1.2-7.7-3.59-10.5c-2.39-2.8-5.48-4.2-9.27-4.2s-6.79,1.4-9.18,4.2c-2.39,2.8-3.59,6.3-3.59,10.5s1.18,7.68,3.54,10.45c2.36,2.77,5.44,4.15,9.23,4.15s6.88-1.38,9.27-4.15Z"/><path d="M119,74.92c-4.14,0-7.95-1.08-11.31-3.22-3.36-2.13-6.05-5.12-7.99-8.89-1.94-3.76-2.92-8.07-2.92-12.83s.97-9.09,2.87-12.87c1.92-3.8,4.57-6.81,7.9-8.94,3.34-2.13,7.07-3.22,11.1-3.22,2.88,0,5.62,.53,8.14,1.59,2.03,.85,3.83,1.89,5.36,3.12,.23-1.15,.75-2.13,1.55-2.96,1.13-1.16,2.56-1.75,4.27-1.75s3.14,.57,4.26,1.69h0c1.12,1.13,1.69,2.59,1.69,4.35v37c0,1.7-.57,3.15-1.69,4.3-1.13,1.16-2.56,1.75-4.27,1.75s-3.13-.57-4.23-1.7c-.74-.76-1.25-1.67-1.52-2.71-1.38,1.3-3.08,2.45-5.1,3.43-2.57,1.24-5.3,1.86-8.14,1.86Zm-.35-48.54c-3.75,0-7.23,1.01-10.33,2.99-3.11,1.99-5.6,4.81-7.4,8.38-1.81,3.58-2.72,7.7-2.72,12.23s.93,8.63,2.76,12.18c1.83,3.54,4.35,6.35,7.49,8.34,3.13,1.99,6.69,3,10.55,3,2.62,0,5.15-.58,7.52-1.72,2.38-1.15,4.29-2.55,5.67-4.15l1.18-1.37,.07,1.8c.05,1.35,.49,2.42,1.33,3.29,.83,.86,1.88,1.27,3.21,1.27s2.39-.43,3.25-1.32c.87-.89,1.29-1.97,1.29-3.31V31.01c0-1.39-.42-2.49-1.28-3.35-.86-.86-1.93-1.28-3.26-1.28s-2.39,.43-3.25,1.32c-.87,.89-1.29,1.97-1.29,3.31v1.63l-1.19-1.02c-1.62-1.51-3.64-2.77-6-3.76-2.35-.98-4.91-1.48-7.6-1.48Zm1.66,38.92c-3.99,0-7.28-1.48-9.77-4.4-2.46-2.89-3.71-6.56-3.71-10.91s1.26-8.04,3.76-10.96c2.52-2.95,5.79-4.45,9.72-4.45s7.29,1.5,9.81,4.45c2.49,2.92,3.76,6.6,3.76,10.96s-1.26,8.03-3.76,10.92h0c-2.52,2.92-5.82,4.4-9.81,4.4Zm0-29.3c-3.55,0-6.37,1.29-8.65,3.95-2.27,2.65-3.42,6.03-3.42,10.04s1.13,7.37,3.37,9.99c2.24,2.63,5.08,3.91,8.69,3.91s6.46-1.28,8.74-3.91h0c2.27-2.62,3.41-5.98,3.41-9.99s-1.15-7.38-3.42-10.04c-2.27-2.66-5.13-3.95-8.73-3.95Z"/></g><g><path d="M167.63,19.59c-.82,1.14-1.22,2.38-1.22,3.72v4.11h7.96c1.4,0,2.56,.45,3.5,1.36,.93,.9,1.4,2.06,1.4,3.46s-.47,2.55-1.4,3.46c-.93,.9-2.1,1.36-3.5,1.36h-7.96v30.96c0,1.52-.5,2.79-1.49,3.81-.99,1.02-2.25,1.53-3.76,1.53s-2.77-.51-3.76-1.53c-.99-1.02-1.49-2.29-1.49-3.81v-30.96h-4.72c-1.4,0-2.57-.45-3.5-1.36-.93-.9-1.4-2.06-1.4-3.46s.47-2.55,1.4-3.46c.93-.9,2.1-1.36,3.5-1.36h4.72v-4.02c0-4.37,1.5-7.93,4.5-10.67,3-2.74,7.33-4.11,12.99-4.11,2.16,0,4.04,.44,5.64,1.31,1.6,.88,2.41,2.22,2.41,4.02,0,1.4-.41,2.54-1.22,3.41-.82,.88-1.81,1.31-2.97,1.31-.29,0-.6-.03-.92-.09-.32-.06-.66-.12-1.01-.17-1.4-.35-2.57-.52-3.5-.52-1.98,0-3.38,.57-4.2,1.71Z"/><path d="M161.16,74.05c-1.71,0-3.15-.59-4.27-1.75-1.12-1.15-1.69-2.6-1.69-4.3v-30.25h-4.02c-1.58,0-2.93-.52-3.99-1.56-1.07-1.04-1.61-2.37-1.61-3.96s.54-2.93,1.61-3.96c1.07-1.03,2.41-1.56,3.99-1.56h4.02v-3.31c0-4.56,1.59-8.33,4.74-11.19,3.12-2.85,7.65-4.3,13.47-4.3,2.27,0,4.28,.47,5.98,1.4,1.84,1,2.77,2.57,2.77,4.65,0,1.58-.48,2.89-1.42,3.89-1.19,1.27-2.71,1.77-4.54,1.44-.32-.06-.65-.12-1-.17-1.39-.35-2.51-.51-3.38-.51-1.76,0-2.94,.46-3.62,1.41h0c-.73,1.02-1.09,2.1-1.09,3.3v3.4h7.25c1.58,0,2.92,.52,3.99,1.56,1.07,1.04,1.62,2.37,1.62,3.96s-.54,2.92-1.61,3.96c-1.07,1.03-2.41,1.56-3.99,1.56h-7.25v30.25c0,1.7-.57,3.15-1.69,4.3-1.13,1.16-2.56,1.74-4.27,1.74Zm-9.97-45.92c-1.22,0-2.2,.38-3.01,1.16-.8,.77-1.18,1.74-1.18,2.95s.39,2.17,1.18,2.95c.8,.78,1.78,1.16,3.01,1.16h5.43v31.67c0,1.34,.42,2.42,1.29,3.31,.86,.89,1.92,1.32,3.25,1.32s2.39-.43,3.25-1.32c.87-.89,1.29-1.97,1.29-3.31v-31.67h8.67c1.22,0,2.2-.38,3.01-1.16,.8-.77,1.18-1.74,1.18-2.95s-.39-2.17-1.18-2.95c-.8-.78-1.79-1.16-3-1.16h-8.67v-4.82c0-1.49,.46-2.88,1.36-4.13h0c.95-1.33,2.56-2,4.77-2,.99,0,2.22,.18,3.67,.55,.3,.05,.64,.11,.96,.17,1.36,.25,2.39-.09,3.25-1.01,.7-.75,1.03-1.7,1.03-2.93,0-1.54-.67-2.65-2.04-3.4-1.49-.81-3.27-1.23-5.3-1.23-5.45,0-9.66,1.32-12.51,3.93-2.88,2.62-4.27,5.94-4.27,10.15v4.73h-5.43Z"/></g><g><path d="M222.21,27.16c.99,.99,1.49,2.27,1.49,3.85v37c0,1.52-.5,2.79-1.49,3.81-.99,1.02-2.25,1.53-3.76,1.53s-2.75-.5-3.72-1.49c-.96-.99-1.47-2.24-1.53-3.76-1.46,1.69-3.43,3.13-5.9,4.33-2.48,1.19-5.09,1.79-7.83,1.79-4.02,0-7.67-1.04-10.93-3.11-3.27-2.07-5.85-4.94-7.74-8.62-1.9-3.67-2.84-7.84-2.84-12.51s.93-8.85,2.8-12.55c1.87-3.7,4.42-6.59,7.65-8.66,3.24-2.07,6.81-3.11,10.71-3.11,2.8,0,5.42,.51,7.87,1.53,2.45,1.02,4.52,2.32,6.21,3.89v-.09c0-1.52,.5-2.78,1.49-3.8,.99-1.02,2.24-1.53,3.76-1.53s2.77,.5,3.76,1.49Zm-12.16,33.28c2.39-2.77,3.59-6.25,3.59-10.45s-1.2-7.7-3.59-10.5c-2.39-2.8-5.48-4.2-9.27-4.2s-6.79,1.4-9.18,4.2c-2.39,2.8-3.59,6.3-3.59,10.5s1.18,7.68,3.54,10.45c2.36,2.77,5.44,4.15,9.23,4.15s6.88-1.38,9.27-4.15Z"/><path d="M199.47,74.92c-4.14,0-7.95-1.08-11.31-3.22-3.36-2.13-6.05-5.12-7.99-8.89-1.94-3.76-2.92-8.07-2.92-12.83s.97-9.09,2.87-12.87c1.92-3.8,4.57-6.81,7.9-8.94,3.34-2.13,7.07-3.22,11.1-3.22,2.88,0,5.62,.53,8.14,1.59,2.03,.85,3.83,1.89,5.36,3.12,.23-1.15,.75-2.13,1.55-2.96,1.13-1.16,2.56-1.75,4.27-1.75s3.14,.57,4.26,1.69h0c1.12,1.13,1.69,2.59,1.69,4.35v37c0,1.7-.57,3.15-1.69,4.3-1.13,1.16-2.56,1.75-4.27,1.75s-3.13-.57-4.23-1.7c-.74-.76-1.25-1.67-1.52-2.71-1.38,1.3-3.08,2.45-5.1,3.43-2.57,1.24-5.3,1.86-8.14,1.86Zm-.35-48.54c-3.75,0-7.23,1.01-10.33,2.99-3.11,1.99-5.6,4.81-7.4,8.38-1.81,3.58-2.72,7.7-2.72,12.23s.93,8.63,2.76,12.18c1.83,3.54,4.35,6.35,7.49,8.34,3.13,1.99,6.69,3,10.55,3,2.62,0,5.15-.58,7.52-1.72,2.38-1.15,4.29-2.55,5.67-4.15l1.18-1.37,.07,1.8c.05,1.35,.49,2.42,1.33,3.29,.83,.86,1.88,1.27,3.21,1.27s2.39-.43,3.25-1.32c.87-.89,1.29-1.97,1.29-3.31V31.01c0-1.39-.42-2.49-1.28-3.35-.86-.86-1.93-1.28-3.26-1.28s-2.39,.43-3.25,1.32c-.87,.89-1.29,1.97-1.29,3.31v1.63l-1.19-1.02c-1.62-1.51-3.64-2.77-6-3.76-2.35-.98-4.91-1.48-7.6-1.48Zm1.66,38.92c-3.99,0-7.28-1.48-9.77-4.4-2.46-2.89-3.71-6.56-3.71-10.91s1.26-8.04,3.76-10.96c2.52-2.95,5.79-4.45,9.72-4.45s7.29,1.5,9.81,4.45c2.49,2.92,3.76,6.6,3.76,10.96s-1.26,8.03-3.76,10.92h0c-2.52,2.92-5.82,4.4-9.81,4.4Zm0-29.3c-3.55,0-6.37,1.29-8.65,3.95-2.27,2.65-3.42,6.03-3.42,10.04s1.13,7.37,3.37,9.99c2.24,2.63,5.08,3.91,8.69,3.91s6.46-1.28,8.74-3.91h0c2.27-2.62,3.41-5.98,3.41-9.99s-1.15-7.38-3.42-10.04c-2.27-2.66-5.13-3.95-8.73-3.95Z"/></g></g><g><path class="cls-1" d="M270.1,69.31c.78,1.31,2.14,1.97,4.08,1.97v1.97c-1.94-.19-3.88-.28-5.81-.28-6.5,0-11.94,.44-16.32,1.31v-6.66c-1.31,2.44-2.86,4.22-4.64,5.35-1.78,1.12-4.05,1.69-6.8,1.69-5.75,0-10.38-2.14-13.88-6.42-3.5-4.28-5.25-10.8-5.25-19.55s1.86-14.61,5.58-18.9c3.72-4.28,8.8-6.42,15.24-6.42,4,0,7.25,.78,9.75,2.34V11.25c0-2.88-.39-4.97-1.17-6.28-.78-1.31-2.14-1.97-4.08-1.97V1.03c1.94,.19,3.88,.28,5.81,.28,6.5,0,11.94-.44,16.32-1.31V63.02c0,2.88,.39,4.97,1.17,6.28Zm-20.07-1.45c1.34-1.28,2.02-2.89,2.02-4.83V27.67c-1.38-.81-2.85-1.22-4.41-1.22-2.94,0-5.11,1.86-6.52,5.58-1.41,3.72-2.11,9.36-2.11,16.93s.56,13.08,1.69,16.18c1.13,3.09,2.66,4.64,4.6,4.64,1.81,0,3.39-.64,4.74-1.92Z"/><path class="cls-1" d="M313.57,58.15l1.59,.56c-1.38,4.38-3.7,8.13-6.99,11.25-3.28,3.13-7.49,4.69-12.61,4.69-6.57,0-11.82-2.03-15.76-6.1-3.94-4.06-5.91-10.57-5.91-19.51s2.2-14.99,6.61-19.27c4.41-4.28,10.24-6.42,17.49-6.42,11.82,0,17.73,7,17.73,21.01h-24.2c-.06,.75-.09,1.88-.09,3.38,0,6,1.05,10.29,3.14,12.85,2.09,2.56,4.64,3.84,7.64,3.84,4.56,0,8.35-2.09,11.35-6.28Zm-22.42-15.57h10.88c.06-5-.3-9.1-1.08-12.29-.78-3.19-1.99-4.78-3.61-4.78-3.5,0-5.57,5.69-6.19,17.07Z"/><path class="cls-1" d="M361.02,24.67v1.97c-1.31,.44-2.52,1.35-3.61,2.72-1.09,1.38-2.11,3.5-3.05,6.38l-12.66,37.61c-1-.12-2.5-.19-4.5-.19s-3.6,.06-4.6,.19l-16.32-41.45c-1.38-3.5-3.19-5.25-5.44-5.25v-1.97c4.94,.38,10.5,.56,16.69,.56,3.13,0,7.19-.19,12.19-.56v1.97c-1.94,0-3.33,.13-4.17,.38-.84,.25-1.27,.91-1.27,1.97,0,.19,.06,.6,.19,1.22l10.22,28.42,4.31-12.94c1.19-3.63,1.78-6.81,1.78-9.57,0-2.94-.63-5.22-1.88-6.85-1.25-1.62-2.91-2.5-4.97-2.63v-1.97c2.31,.25,5.6,.38,9.85,.38,3.56,0,5.97-.12,7.22-.38Z"/></g></g><path class="cls-2" d="M41.2,105.33h0c-.52-.69-1.24-1.22-2.15-1.57-3.79-1.24-6.69-2.59-8.58-4-1.92-1.44-3.25-3.14-3.93-5.04-.67-1.86-1.01-4.39-1.01-7.52l.12-11.01c0-4.27-.96-7.86-2.87-10.66-1.9-2.79-4.64-4.81-8.14-6l-1.43-.49,1.44-.46c3.5-1.12,6.24-3.12,8.13-5.94,1.9-2.84,2.87-6.48,2.87-10.84l-.12-11c0-3.06,.34-5.57,1.01-7.47,.69-1.94,2.03-3.66,4-5.1,1.92-1.41,4.79-2.76,8.53-4.01,.92-.28,1.63-.73,2.15-1.35,.51-.61,.75-1.26,.75-2,0-1.04-.28-1.88-.87-2.57-.56-.66-1.4-.98-2.57-.98-.58,0-1.05,.04-1.41,.11-7.5,1.67-12.93,4.23-16.12,7.61-3.18,3.36-4.79,8.16-4.79,14.25l.12,11c0,4.49-.99,8.1-2.94,10.73-1.98,2.67-4.94,4.06-8.79,4.14h-.71c-1.11,0-2.02,.35-2.78,1.08-.75,.72-1.12,1.6-1.12,2.71s.37,2.02,1.13,2.77c.76,.76,1.67,1.13,2.77,1.13h.46c3.86,.08,6.85,1.47,8.91,4.13,2.03,2.63,3.06,6.28,3.06,10.85l-.12,11.01c0,3.93,.59,7.33,1.76,10.11,1.15,2.75,3.27,5.15,6.3,7.13,3.06,2,7.42,3.55,12.97,4.62,.21,.05,.61,.11,1.41,.11,.87,0,1.61-.31,2.25-.95,.65-.65,1-1.44,1.07-2.4,0-.71-.25-1.41-.77-2.1Z"/><path class="cls-2" d="M412.93,50.95c-.76-.76-1.67-1.13-2.77-1.13h-.46c-3.86-.08-6.85-1.47-8.91-4.13-2.03-2.63-3.06-6.28-3.06-10.85l.12-11.01c0-3.93-.59-7.33-1.76-10.11-1.15-2.75-3.27-5.15-6.3-7.13-3.06-2-7.42-3.55-12.97-4.62-.21-.05-.61-.11-1.41-.11-.87,0-1.61,.31-2.25,.95-.65,.65-1,1.44-1.07,2.4,0,.71,.25,1.41,.77,2.1h0c.52,.69,1.24,1.22,2.15,1.57,3.79,1.24,6.69,2.59,8.58,4,1.92,1.44,3.25,3.14,3.93,5.04,.67,1.86,1.01,4.39,1.01,7.52l-.12,11.01c0,4.27,.96,7.86,2.87,10.66,1.9,2.79,4.64,4.81,8.14,6l1.43,.49-1.44,.46c-3.5,1.12-6.24,3.12-8.13,5.94-1.9,2.84-2.87,6.48-2.87,10.84l.12,11c0,3.06-.34,5.57-1.01,7.47-.69,1.94-2.03,3.66-4,5.1-1.92,1.41-4.79,2.76-8.53,4.01-.92,.28-1.63,.73-2.15,1.35-.51,.61-.75,1.26-.75,2,0,1.04,.28,1.88,.87,2.57,.56,.66,1.4,.98,2.57,.98,.58,0,1.05-.04,1.41-.11,7.5-1.67,12.93-4.23,16.12-7.61,3.18-3.36,4.79-8.16,4.79-14.25l-.12-11c0-4.49,.99-8.1,2.94-10.73,1.98-2.67,4.94-4.06,8.79-4.14h.71c1.11,0,2.02-.35,2.78-1.08,.75-.72,1.12-1.6,1.12-2.71s-.37-2.02-1.13-2.77Z"/><g><rect class="cls-2" x="149.14" y="92.05" width="19.69" height="19.69" rx="9.85" ry="9.85"/><rect class="cls-1" x="184.36" y="92.05" width="45.33" height="19.69" rx="9.85" ry="9.85"/><rect x="245.23" y="92.05" width="19.69" height="19.69" rx="9.85" ry="9.85"/></g></g><g><rect class="cls-3" x="59.41" y="26.47" width="3.7" height="29.38" rx="1.85" ry="1.85"/><path class="cls-3" d="M61.26,56.45c-1.35,0-2.45-1.1-2.45-2.45V28.32c0-1.35,1.1-2.45,2.45-2.45s2.45,1.1,2.45,2.45v25.68c0,1.35-1.1,2.45-2.45,2.45Zm0-29.38c-.69,0-1.25,.56-1.25,1.25v25.68c0,.69,.56,1.25,1.25,1.25h0c.69,0,1.25-.56,1.25-1.25V28.32c0-.69-.56-1.25-1.25-1.25Z"/></g><g><circle class="cls-3" cx="121.04" cy="50.1" r="5.1"/><path class="cls-3" d="M121.04,55.59c-3.02,0-5.49-2.46-5.49-5.48s2.46-5.49,5.49-5.49,5.48,2.46,5.48,5.49-2.46,5.48-5.48,5.48Zm0-10.2c-2.6,0-4.72,2.12-4.72,4.72s2.12,4.72,4.72,4.72,4.72-2.12,4.72-4.72-2.12-4.72-4.72-4.72Z"/></g></g></g></svg>