<?xml version="1.0" encoding="UTF-8"?><svg id="Camada_2" xmlns="http://www.w3.org/2000/svg" viewBox="0 0 63 62.63"><defs><style>.cls-1{fill:#ebeced;}.cls-2{fill:#fd7701;}</style></defs><g id="_Ñëîé_1"><g><path class="cls-2" d="M47.24,22.04c-3.01-4.94-8.26-8.17-14.04-8.64-.74-.06-1.37-.48-1.73-1.06-.24-.39-.36-.85-.32-1.34,.1-1.23,1.18-2.15,2.41-2.04,7.2,.58,13.73,4.61,17.49,10.76,.64,1.05,.31,2.42-.74,3.07s-2.43,.31-3.07-.74Z"/><path class="cls-2" d="M51.65,28c1.23-.06,2.27,.89,2.33,2.13,.14,3.03-.32,6.01-1.37,8.84-.43,1.16-1.71,1.75-2.86,1.32-.26-.1-.5-.24-.69-.41-.68-.59-.96-1.56-.63-2.46,.84-2.27,1.21-4.66,1.09-7.09-.05-1.23,.9-2.28,2.13-2.33Z"/><path class="cls-1" d="M42.93,45.17c.95-.79,2.35-.66,3.14,.3,.78,.95,.65,2.36-.31,3.14-4.4,3.63-9.99,5.44-15.72,5.1-5.03-.3-9.69-2.21-13.5-5.53-4.12-3.59-6.8-8.56-7.54-13.97-.17-1.22,.69-2.35,1.91-2.51,1.22-.17,2.35,.69,2.51,1.91,.59,4.34,2.74,8.32,6.05,11.21,3.05,2.66,6.8,4.2,10.83,4.44,4.6,.28,9.08-1.18,12.62-4.09Z"/><path class="cls-2" d="M23.63,5.93c-2.38,.46-4.61,1.39-6.63,2.75-1.02,.69-2.41,.42-3.1-.61-.69-1.02-.42-2.41,.61-3.1,2.52-1.69,5.3-2.84,8.26-3.42,1.21-.24,2.38,.55,2.62,1.76,.05,.27,.05,.55,.01,.81-.15,.89-.84,1.63-1.77,1.81Z"/><path class="cls-2" d="M24.62,14.07c-5.28,2.37-8.51,6.21-10.29,11.73-.23,.71-.77,1.22-1.43,1.44-.43,.14-.91,.15-1.38,0-1.17-.38-1.82-1.64-1.44-2.81,2.21-6.88,6.13-11.48,12.7-14.43,1.12-.51,2.44,0,2.95,1.12,.51,1.12,0,2.45-1.12,2.95Z"/><path class="cls-2" d="M8.34,49.52c.21-.18,.45-.31,.7-.4,.85-.29,1.83-.05,2.44,.69,1.55,1.86,3.43,3.37,5.6,4.49,1.09,.57,1.52,1.91,.96,3.01-.57,1.1-1.91,1.52-3.01,.96-2.69-1.4-5.04-3.28-6.97-5.6-.79-.95-.66-2.35,.29-3.14Z"/><path class="cls-1" d="M1.03,23.12c1.16-4.43,3.34-8.64,6.29-12.18,.79-.94,2.2-1.07,3.14-.28,.95,.79,1.07,2.2,.28,3.14-2.54,3.04-4.4,6.65-5.4,10.45-.62,2.36-.92,4.8-.88,7.27,.05,3.57,.78,7.03,2.18,10.28,.49,1.13-.04,2.45-1.17,2.93-.28,.12-.57,.18-.85,.18-.88,.01-1.72-.49-2.08-1.35C.92,39.77,.06,35.74,0,31.58c-.04-2.86,.3-5.71,1.03-8.46Z"/><path class="cls-2" d="M26.38,57.68c1.8,.34,3.66,.51,5.5,.48,14.91-.21,26.86-12.51,26.65-27.42-.02-1.23,.97-2.24,2.2-2.26,1.23-.02,2.25,.97,2.26,2.2,.25,17.37-13.68,31.7-31.05,31.94-2.15,.03-4.31-.16-6.41-.56-1.21-.23-2-1.4-1.77-2.61s1.4-2.01,2.61-1.77Z"/><path class="cls-2" d="M59.19,23.76c-1.23,0-2.23-1-2.23-2.23s1-2.23,2.23-2.23,2.23,1,2.23,2.23-1,2.23-2.23,2.23Z"/><path class="cls-1" d="M21.29,30.72c-1.23,0-2.23-1-2.23-2.23s1-2.23,2.23-2.23,2.23,1,2.23,2.23-1,2.23-2.23,2.23Z"/><path class="cls-1" d="M56.57,15.54c-.43,.33-.94,.47-1.44,.45-.64-.03-1.27-.33-1.68-.87-4.9-6.44-12.35-10.33-20.42-10.66-1.23-.05-2.19-1.09-2.14-2.32C30.94,.91,31.97-.05,33.21,0c9.41,.39,18.08,4.91,23.79,12.42,.75,.98,.56,2.38-.42,3.12Z"/><path class="cls-2" d="M20.64,33.28c.25-.1,.52-.15,.79-.15,.86,0,1.63,.52,1.96,1.32,.5,1.23,.97,1.9,1.94,2.8,.6,.56,1.28,1.03,2.01,1.41,1.07,.55,2.2,.88,3.38,.98,.56,.05,1.07,.31,1.44,.74,.36,.43,.54,.98,.49,1.54-.02,.28-.1,.54-.23,.79-.36,.71-1.08,1.14-1.87,1.14-.06,0-.12,0-.18,0-1.74-.15-3.4-.63-4.96-1.43-1.08-.55-2.07-1.25-2.94-2.06-1.42-1.31-2.26-2.51-2.99-4.31-.44-1.08,.08-2.31,1.16-2.75Z"/><path class="cls-1" d="M36.6,38.72c.51-.36,.99-.76,1.41-1.21,3.45-3.62,3.31-9.36-.31-12.81-.84-.8-.87-2.14-.07-2.98,.4-.42,.95-.65,1.53-.65,.54,0,1.06,.21,1.45,.58,5.3,5.05,5.5,13.47,.45,18.77-.63,.66-1.32,1.25-2.06,1.76-.35,.25-.77,.38-1.2,.38h0c-.69,0-1.34-.34-1.74-.91-.32-.46-.44-1.03-.34-1.58,.1-.55,.41-1.04,.87-1.35Z"/><path class="cls-2" d="M25.97,24.27c-.39,.37-.91,.57-1.44,.57-.58,0-1.14-.24-1.54-.67-.8-.85-.76-2.19,.09-2.98,2.47-2.32,5.18-3.23,8.56-3.23,.56,0,1.12,.04,1.67,.1,1.15,.14,1.98,1.2,1.83,2.35-.06,.49-.29,.94-.65,1.28-.39,.37-.91,.57-1.44,.57h0c-.09,0-.18,0-.26-.02-.38-.05-.76-.07-1.14-.07-2.31,0-3.99,.5-5.68,2.09Z"/></g></g></svg>