<?xml version="1.0" encoding="UTF-8"?><svg id="Camada_2" xmlns="http://www.w3.org/2000/svg" viewBox="0 0 72.07 70.66"><defs><style>.cls-1{fill:#ebeced;}.cls-2{fill:#fd7701;}</style></defs><g id="_Ñëîé_1"><g><rect class="cls-1" x="15.98" y="14.57" width="56.08" height="56.08"/><path class="cls-2" d="M50.21,1.16c0-.64,.52-1.16,1.16-1.16h0c.64,0,1.16,.52,1.16,1.16V51.6c0,.64-.52,1.16-1.16,1.16h0c-.64,0-1.16-.52-1.16-1.16V1.16Zm-10.04,50.44c0,.64,.52,1.16,1.16,1.16h0c.64,0,1.16-.52,1.16-1.16V1.16c0-.64-.52-1.16-1.16-1.16h0c-.64,0-1.16,.52-1.16,1.16V51.6Zm-10.04,0c0,.64,.52,1.16,1.16,1.16h0c.64,0,1.16-.52,1.16-1.16V1.16c0-.64-.52-1.16-1.16-1.16h0c-.64,0-1.16,.52-1.16,1.16V51.6Zm-10.04,0c0,.64,.52,1.16,1.16,1.16h0c.64,0,1.16-.52,1.16-1.16V1.16c0-.64-.52-1.16-1.16-1.16h0c-.64,0-1.16,.52-1.16,1.16V51.6Zm-10.04,0c0,.64,.52,1.16,1.16,1.16h0c.64,0,1.16-.52,1.16-1.16V1.16c0-.64-.52-1.16-1.16-1.16h0c-.64,0-1.16,.52-1.16,1.16V51.6Zm-10.04,0c0,.64,.52,1.16,1.16,1.16h0c.64,0,1.16-.52,1.16-1.16V1.16c0-.64-.52-1.16-1.16-1.16h0C.52,0,0,.52,0,1.16V51.6Z"/></g></g></svg>