<?xml version="1.0" encoding="UTF-8"?><svg id="Camada_2" xmlns="http://www.w3.org/2000/svg" viewBox="0 0 52 96.28"><defs><style>.cls-1{fill:#fd7701;}</style></defs><g id="_Ñëîé_1"><g><path class="cls-1" d="M39.03,6.49c0-3.58,2.91-6.49,6.49-6.49s6.49,2.91,6.49,6.49-2.91,6.49-6.49,6.49-6.49-2.91-6.49-6.49Zm1.34,0c0,2.84,2.31,5.14,5.14,5.14s5.14-2.31,5.14-5.14-2.31-5.14-5.14-5.14-5.14,2.31-5.14,5.14Z"/><path class="cls-1" d="M19.51,6.49c0-3.58,2.91-6.49,6.49-6.49s6.49,2.91,6.49,6.49-2.91,6.49-6.49,6.49-6.49-2.91-6.49-6.49Zm1.34,0c0,2.84,2.31,5.14,5.14,5.14s5.14-2.31,5.14-5.14-2.31-5.14-5.14-5.14-5.14,2.31-5.14,5.14Z"/><path class="cls-1" d="M0,6.49C0,2.91,2.91,0,6.49,0s6.49,2.91,6.49,6.49-2.91,6.49-6.49,6.49S0,10.06,0,6.49Zm1.34,0c0,2.84,2.31,5.14,5.14,5.14s5.14-2.31,5.14-5.14S9.32,1.34,6.49,1.34,1.34,3.65,1.34,6.49Z"/><path class="cls-1" d="M39.03,27.31c0-3.58,2.91-6.49,6.49-6.49s6.49,2.91,6.49,6.49-2.91,6.49-6.49,6.49-6.49-2.91-6.49-6.49Zm1.34,0c0,2.84,2.31,5.14,5.14,5.14s5.14-2.31,5.14-5.14-2.31-5.14-5.14-5.14-5.14,2.31-5.14,5.14Z"/><path class="cls-1" d="M19.51,27.31c0-3.58,2.91-6.49,6.49-6.49s6.49,2.91,6.49,6.49-2.91,6.49-6.49,6.49-6.49-2.91-6.49-6.49Zm1.34,0c0,2.84,2.31,5.14,5.14,5.14s5.14-2.31,5.14-5.14-2.31-5.14-5.14-5.14-5.14,2.31-5.14,5.14Z"/><path class="cls-1" d="M0,27.31c0-3.58,2.91-6.49,6.49-6.49s6.49,2.91,6.49,6.49-2.91,6.49-6.49,6.49S0,30.89,0,27.31Zm1.34,0c0,2.84,2.31,5.14,5.14,5.14s5.14-2.31,5.14-5.14-2.31-5.14-5.14-5.14-5.14,2.31-5.14,5.14Z"/><path class="cls-1" d="M39.03,48.14c0-3.58,2.91-6.49,6.49-6.49s6.49,2.91,6.49,6.49-2.91,6.49-6.49,6.49-6.49-2.91-6.49-6.49Zm1.34,0c0,2.84,2.31,5.14,5.14,5.14s5.14-2.31,5.14-5.14-2.31-5.14-5.14-5.14-5.14,2.31-5.14,5.14Z"/><path class="cls-1" d="M19.51,48.14c0-3.58,2.91-6.49,6.49-6.49s6.49,2.91,6.49,6.49-2.91,6.49-6.49,6.49-6.49-2.91-6.49-6.49Zm1.34,0c0,2.84,2.31,5.14,5.14,5.14s5.14-2.31,5.14-5.14-2.31-5.14-5.14-5.14-5.14,2.31-5.14,5.14Z"/><path class="cls-1" d="M0,48.14c0-3.58,2.91-6.49,6.49-6.49s6.49,2.91,6.49,6.49-2.91,6.49-6.49,6.49-6.49-2.91-6.49-6.49Zm1.34,0c0,2.84,2.31,5.14,5.14,5.14s5.14-2.31,5.14-5.14-2.31-5.14-5.14-5.14-5.14,2.31-5.14,5.14Z"/><path class="cls-1" d="M39.03,68.96c0-3.58,2.91-6.49,6.49-6.49s6.49,2.91,6.49,6.49-2.91,6.49-6.49,6.49-6.49-2.91-6.49-6.49Zm1.34,0c0,2.84,2.31,5.14,5.14,5.14s5.14-2.31,5.14-5.14-2.31-5.14-5.14-5.14-5.14,2.31-5.14,5.14Z"/><path class="cls-1" d="M19.51,68.96c0-3.58,2.91-6.49,6.49-6.49s6.49,2.91,6.49,6.49-2.91,6.49-6.49,6.49-6.49-2.91-6.49-6.49Zm1.34,0c0,2.84,2.31,5.14,5.14,5.14s5.14-2.31,5.14-5.14-2.31-5.14-5.14-5.14-5.14,2.31-5.14,5.14Z"/><path class="cls-1" d="M0,68.96c0-3.58,2.91-6.49,6.49-6.49s6.49,2.91,6.49,6.49-2.91,6.49-6.49,6.49-6.49-2.91-6.49-6.49Zm1.34,0c0,2.84,2.31,5.14,5.14,5.14s5.14-2.31,5.14-5.14-2.31-5.14-5.14-5.14-5.14,2.31-5.14,5.14Z"/><path class="cls-1" d="M39.03,89.79c0-3.58,2.91-6.49,6.49-6.49s6.49,2.91,6.49,6.49-2.91,6.49-6.49,6.49-6.49-2.91-6.49-6.49Zm1.34,0c0,2.84,2.31,5.14,5.14,5.14s5.14-2.31,5.14-5.14-2.31-5.14-5.14-5.14-5.14,2.31-5.14,5.14Z"/><path class="cls-1" d="M19.51,89.79c0-3.58,2.91-6.49,6.49-6.49s6.49,2.91,6.49,6.49-2.91,6.49-6.49,6.49-6.49-2.91-6.49-6.49Zm1.34,0c0,2.84,2.31,5.14,5.14,5.14s5.14-2.31,5.14-5.14-2.31-5.14-5.14-5.14-5.14,2.31-5.14,5.14Z"/><path class="cls-1" d="M0,89.79c0-3.58,2.91-6.49,6.49-6.49s6.49,2.91,6.49,6.49-2.91,6.49-6.49,6.49-6.49-2.91-6.49-6.49Zm1.34,0c0,2.84,2.31,5.14,5.14,5.14s5.14-2.31,5.14-5.14-2.31-5.14-5.14-5.14-5.14,2.31-5.14,5.14Z"/></g></g></svg>